<svg xmlns="http://www.w3.org/2000/svg" viewBox="0 0 417.06 112.87">
    <defs>
        <style>.a{fill:#ff2351;}.b{fill:#00d8eb;}.c{fill:#000b34;}.d{fill:#fa1d42;}.e{fill:#222;}</style>
    </defs>
    <path class="a"
          d="M176.69,43.56H116.83V51h-7.6V67.6h38.19V92.12h-15v7.46h22.48V107h-15v11.18a12.4,12.4,0,0,1-4.81,11,28.74,28.74,0,0,0,4.51,1.5,14,14,0,0,1-3.64.48,18.45,18.45,0,0,1-4-.48,35.35,35.35,0,0,1-13.71-6.91l-1.05-.87a61.84,61.84,0,0,1-4.59-4.42h-7.67L91.47,138.4a49.35,49.35,0,0,0,38.82,18h11.84c21.46-1.68,34.56-15.23,34.56-37.74V99.46h-6.55V92.12h14.15V43.56Z"
          transform="translate(-91.47 -43.56)"/>
    <path class="a" d="M116.83,74.85h7.48v7.42h-7.48Zm8.24,24.73V107h7.45V99.58Z" transform="translate(-91.47 -43.56)"/>
    <path class="b"
          d="M191.87,84.7V43.56H116.74v24h38.17V107h-7.49v11.18c0,6.88-3,11.09-8,12.41a28,28,0,0,1-4.39-1.38,44.89,44.89,0,0,1-15-10.7h-7.51l-3,4.3-.24.36L99,138.4a49.39,49.39,0,0,0,35.67,17.82h10.61c23.86,0,38.82-13.67,38.82-37.56V107h7.58V99.58H170.14V92.12h29.33V84.7Zm-7.58,63h7.49v7.42h-7.49Z"
          transform="translate(-91.47 -43.56)"/>
    <path class="c"
          d="M176.69,43.56H116.83v24H155V107h-7.58v11.18c0,6.88-3,11.09-8,12.41a14,14,0,0,1-3.64.48,18.49,18.49,0,0,1-3.93-.36,35.35,35.35,0,0,1-13.71-6.91l-1.05-.87a61.84,61.84,0,0,1-4.59-4.42l-3,4.3-.24.36L99,138.4a49.39,49.39,0,0,0,35.67,17.82h7.42c21.46-1.47,34.56-15,34.56-37.53V99.46h-6.55V92.12h14.15V43.56Z"
          transform="translate(-91.47 -43.56)"/>
    <path class="d"
          d="M258.89,63h0a4.14,4.14,0,0,1,.47,2.11h0a5.62,5.62,0,0,1-1,2.79h0a15.28,15.28,0,0,1-4.95,4.72h0a39.12,39.12,0,0,1-6.86,3.29h0A56.12,56.12,0,0,1,239.36,78h0c-2.4.53-4.62,1-6.66,1.28h0c2.07-.86,4.23-1.77,6.48-2.76h0a60.89,60.89,0,0,0,6.5-3.29h0l-5.76-3.44,4-3.37,2.63,6.3h0c1.43-.88,2.83-1.85,4.2-2.89h0a15.74,15.74,0,0,0,3.4-3.53h0a5.27,5.27,0,0,0,.7-1.46h0a1.85,1.85,0,0,0,0-1.3h0c-.32-.73-1.14-1.11-2.44-1.15h0a19.34,19.34,0,0,0-4.47.33h0c-1.71.31-3.41.69-5.07,1.13h0Q240.58,66,238.17,68h0q-2.41,2.06-5,3.84h0q2.94-3.86,5.39-7.74h0a61.39,61.39,0,0,0,4.23-7.94h0l5.63,1.66h0l-1.75,2h0c-.6.68-1.24,1.36-1.92,2.06h0a39.12,39.12,0,0,1,4.37-.78h0c1.49-.18,2.74-.31,3.76-.39h0a9.56,9.56,0,0,1,3.77.43h0A3.78,3.78,0,0,1,258.89,63Zm-34.27,5.69-8.7-6.06L220.33,59Zm8-11.88-1.46,23-2.45.36-.86-10.09L216.41,80.64l-3.12-4.77,14.51-6.3-1-12.19Zm30.79,20-1.17,3.31h0a7.73,7.73,0,0,0-1.8-.38h0a11.23,11.23,0,0,0-2.17,0h0l-12.91,1.6h0c-.2.7-.4,1.42-.59,2.16h0c-.18.76-.36,1.51-.53,2.25h0a38.27,38.27,0,0,1,5.46,0h0a6.49,6.49,0,0,1,2.93.94h0a7,7,0,0,1,2.09,1.87h0a4.55,4.55,0,0,1,.83,2.27h0a18.25,18.25,0,0,1,0,3.06h0a28.67,28.67,0,0,1-.8,5.29h0c-.4,1.61-.89,3.21-1.45,4.81h0l1.45-.18h0c.7-.09,1.38-.2,2.06-.34h0a9.81,9.81,0,0,0,2.05-.71h0l-1.17,3.06h0a6.57,6.57,0,0,0-1.5-.37h0a7.7,7.7,0,0,0-1.92,0h0l-28.21,3.18v2.58l-2.45.36-3.25-24,5.7-.92v2.83h0c.94-.29,1.89-.57,2.85-.83h0l2.84-.78h0c0-.69,0-1.5-.07-2.41h0c0-.92-.1-1.71-.18-2.36h0l-14,1.79h0a10.68,10.68,0,0,0-2.08.45h0a5,5,0,0,0-1.71.82h0l-1.66-2.8h0c.94.07,1.87.1,2.79.1h0a26.78,26.78,0,0,0,3-.18h0L258.76,78h0a17.05,17.05,0,0,0,2.23-.43h0a19.09,19.09,0,0,0,2.43-.79ZM251.29,92.27h0a15.48,15.48,0,0,0-.3-2h0a2.69,2.69,0,0,0-.67-1.35h0c-.82-.93-2.24-1.4-4.28-1.4H244q-.1,1-.15,1.8h0a10.14,10.14,0,0,0,0,1.49h0a3.93,3.93,0,0,0,.79,2.33h0a2.39,2.39,0,0,0,1.1.59h0a4.92,4.92,0,0,0,1.78,0h0a6.51,6.51,0,0,0,2-.55h0C250.07,92.91,250.68,92.6,251.29,92.27ZM240.58,81.94l-4.39.54h0c0,.61,0,1.3,0,2.08h0c0,.78,0,1.52,0,2.2h0c.65-.12,1.28-.23,1.89-.32h0c.61-.11,1.24-.21,1.89-.29h0c.08-.77.18-1.51.29-2.23h0c.09-.71.2-1.37.32-2Zm10.78,11.93h0a27.62,27.62,0,0,1-2.66,1.19h0a12.17,12.17,0,0,1-3,.7h0a4.74,4.74,0,0,1-4.16-1h0a6,6,0,0,1-1.65-3.78h0a7.49,7.49,0,0,1-.13-1.44h0c0-.52,0-1.06.07-1.62h0l-1.91.23h0l-1.89.25h0a14.72,14.72,0,0,1-1,3.89h0a12,12,0,0,1-1.89,3h0a13.12,13.12,0,0,1-2.84,2.45h0a39.93,39.93,0,0,1-3.59,2h0a14.37,14.37,0,0,0,3.86-5.2h0a16.51,16.51,0,0,0,1.15-5.33h0c-.94.2-1.87.44-2.81.7h0l-2.81.83h0V107l23.44-2.63h0A52.43,52.43,0,0,0,250.9,99h0A26.87,26.87,0,0,0,251.36,93.87ZM247,98.64l-1,2.81h0a4.13,4.13,0,0,0-1.62-.33h0a10.43,10.43,0,0,0-1.8.09h0l-8,1h0a6.52,6.52,0,0,0-3.06,1h0l-1.53-2.5h0a25.13,25.13,0,0,0,4.53-.2h0l8.57-1h0a20.19,20.19,0,0,0,2-.34h0a17.54,17.54,0,0,0,1.89-.58Zm76.14-17.8h0a37.13,37.13,0,0,1-.52,5h0c-.3,1.89-.67,3.82-1.1,5.82h0q-.64,3-1.41,6h0c-.51,2-1,3.81-1.56,5.47h0l1.89-.34h0a8.53,8.53,0,0,0,1.53-.39h0l-1.33,3.31h0a15.39,15.39,0,0,0-2.34-.58h0a9.29,9.29,0,0,0-2.69,0h0l-20.44,2.44v3.68l-2.45.3-3.3-38.61,5.75-.74v4.72h0c1.3-.66,2.66-1.3,4.06-1.91h0q2.13-.92,4.38-1.65h0l-.49-14.93,5.64-.91L308.28,72h0c1-.21,2-.37,3.06-.49h0a19.58,19.58,0,0,1,3.06-.12h0a9.8,9.8,0,0,1,3.94,1h0a9,9,0,0,1,3,2.5h0a9.79,9.79,0,0,1,1.42,2.72h0A8.38,8.38,0,0,1,323.15,80.84Zm-35.07-6.25L277,65.65,282.45,62Zm-3.54,10.53L273.4,77.58l5.07-4Zm3.42.42L278.83,106l-5.13-4ZM318.2,80.1h0a9.68,9.68,0,0,0-.22-2.45h0a6.73,6.73,0,0,0-1-2.21h0a5.08,5.08,0,0,0-2-1.71h0a5.17,5.17,0,0,0-2.63-.54h0a15.84,15.84,0,0,0-2,.14h0c-.69.11-1.43.24-2.21.4h0l-.49,14.15,3.8-.51h0a8.93,8.93,0,0,0,2.09-.45h0c.65-.23,1.32-.48,2-.77h0l-1,3.26h0c-.61-.14-1.16-.25-1.66-.35h0a4.75,4.75,0,0,0-1.65,0h0l-3.6.48-.49,14.94,7-.79h0q.92-2.62,1.65-5.67h0q.75-3,1.26-6.12h0q.53-3.08.8-6.12h0C318,83.74,318.15,81.85,318.2,80.1Zm-14.08,8.19L303.69,75h0q-2.4.86-4.59,1.8h0c-1.48.64-2.78,1.26-3.92,1.88h0V89.46Zm.49,16.47L304.18,90l-9,1.17v14.81ZM386.36,100l-1.15,3.44h0a9.56,9.56,0,0,0-2-.41h0a11,11,0,0,0-2.43,0h0L340,107.57h0a8.19,8.19,0,0,0-2.05.56h0a6.8,6.8,0,0,0-1.68.91h0l-1.53-3h2.54a24.63,24.63,0,0,0,2.72-.18h0l19-2.14-1.83-39.3L345.85,66h0a8.19,8.19,0,0,0-2,.56h0a7.91,7.91,0,0,0-1.71.92h0l-1.53-3h0c.94,0,1.78,0,2.54,0h0a15,15,0,0,0,2.72-.22h0l29.26-4h0a11.44,11.44,0,0,0,1.23-.18h0l1.37-.27h0c.46-.1.93-.23,1.38-.37h0l1.15-.4h0l-1.15,3.44h0a9.45,9.45,0,0,0-2-.42h0a11,11,0,0,0-2.43,0h0l-11.38,1.53-1.65,39.9,19.65-2.21h0q.54-.06,1.23-.18h0l1.37-.27h0c.46-.11.93-.24,1.38-.38h0c.45-.14.83-.28,1.15-.4Zm60.77-34.63L446,68.47h0a5.87,5.87,0,0,0-1.91-.29h0a18.51,18.51,0,0,0-2.32.11h0l-12.06,1.59-.54,10.22,9.49-1.22h0c.69-.09,1.5-.23,2.41-.44h0c.92-.2,1.73-.4,2.41-.61h0l-1.1,3h0a5.74,5.74,0,0,0-2-.31h0a21.58,21.58,0,0,0-2.2.11h0l-9.07,1.17-.49,9.67,10.84-1.28h0a21,21,0,0,0,2.41-.47h0q1.38-.33,2.43-.63h0l-1.12,3.06h0a6.48,6.48,0,0,0-2-.34h0a13.18,13.18,0,0,0-2.2.09h0l-10.4,1.28-.79,16.52-2.45.38L424,70.61l-1.89.24h0a29.36,29.36,0,0,1-.92,4.84h0a12.81,12.81,0,0,1-1.08,2.66h0a9.68,9.68,0,0,1-1.74,2.36h0A6.33,6.33,0,0,1,416,82.24h0a4.42,4.42,0,0,1-2.92,0h0a5.11,5.11,0,0,1-1.87-1h0a4.55,4.55,0,0,1-1.31-1.76h0a5.11,5.11,0,0,1-.44-2.32h0a5.25,5.25,0,0,1,.62-2.22h0a4.27,4.27,0,0,1,1.22-1.28h0a3.29,3.29,0,0,1,1.84-.48h0a3,3,0,0,1,2.17.72h0a3.1,3.1,0,0,1,1,1.78h0a3.79,3.79,0,0,1-.22,1.84h0a1.93,1.93,0,0,1-1.31,1.22h0a2.25,2.25,0,0,1-1.35.09h0a1.72,1.72,0,0,1-1.1-.83h0a1.35,1.35,0,0,1-.09-1.06h0a1.54,1.54,0,0,1,.76-1h0a1.39,1.39,0,0,0,0,1.19h0a1.28,1.28,0,0,0,.7.52h0a.86.86,0,0,0,.83-.18h0A1.49,1.49,0,0,0,415,76.3h0a1.76,1.76,0,0,0-.36-1.26h0a1.88,1.88,0,0,0-1.47-.63h0a1.72,1.72,0,0,0-1.62.76h0a3.41,3.41,0,0,0-.63,1.87h0a3.12,3.12,0,0,0,.5,2.16h0A3.85,3.85,0,0,0,413,80.59h0a3.16,3.16,0,0,0,1.56.21h0a2.59,2.59,0,0,0,1.57-.83h0a5,5,0,0,0,1.22-2.26h0a13.36,13.36,0,0,0,.42-2.63h0c0-1.14,0-2.42,0-3.84h0c-.06-1.4-.18-2.86-.34-4.37h0c-.17-1.5-.36-3-.58-4.5h0c-.23-1.49-.46-2.86-.7-4.12h0l6.05-.92h0a57.69,57.69,0,0,1,.3,5.87h0q0,3-.23,5.88h0l20-2.57h0a20.09,20.09,0,0,0,2.44-.47h0c.95-.21,1.77-.42,2.45-.63ZM407,60.21l6.12,2.38h0q-2.08,3.91-4.44,7.56h0A83.26,83.26,0,0,1,403.75,77h0l5.13-.61-1,28-2.65.31-2.07-27h0c-1.22,1.55-2.46,3-3.71,4.34h0c-1.25,1.34-2.48,2.58-3.71,3.72h0q2-3.06,3.53-6.08h0c1.05-2,2-4.07,2.94-6.16h0c.92-2.07,1.77-4.22,2.53-6.42h0q1.17-3.3,2.27-7Zm97.92,7.22h0a4.44,4.44,0,0,1,.09,2.18h0a4.93,4.93,0,0,1-1.13,2.23h0a11.48,11.48,0,0,1-3.73,3.06h0a29.65,29.65,0,0,1-4.71,1.89h0A9.58,9.58,0,0,0,497.75,74h0a29.08,29.08,0,0,0,1.29-2.8h0a7.93,7.93,0,0,0,.49-1.93h0a5.5,5.5,0,0,0-.09-1.91h0a3.5,3.5,0,0,0-.79-1.53h0A3.25,3.25,0,0,0,497,65h0a24.67,24.67,0,0,0-6.34-.58h0c-2.37.06-4.91.26-7.61.58h0a80.64,80.64,0,0,0-8.5,1.62h0a67.68,67.68,0,0,0-8.38,2.66h0l-.08,8-2.75.69-3.67-12.8,6.55-1.89-.05,4.41h0a63.83,63.83,0,0,1,6.91-2.25h0a73.06,73.06,0,0,1,7.9-1.62h0l-2.14-6.53,7.4-.74-1.59,6.78h0q4.39-.48,8.57-.54h0a27.13,27.13,0,0,1,7.4.8h0a6.55,6.55,0,0,1,2.75,1.54h0A6.13,6.13,0,0,1,504.91,67.43Zm2.4,18.3h0a7,7,0,0,1-1.26,2.2h0a6.28,6.28,0,0,1-1.93,1.53h0a7.61,7.61,0,0,1-5,.56h0A11.79,11.79,0,0,1,495,88.29h0a17.74,17.74,0,0,1-3.26-2.86h0a32.64,32.64,0,0,1-5.33,2.41h0a33.63,33.63,0,0,1-5.69,1.44h0a47.27,47.27,0,0,1-5.14.58h0a23.05,23.05,0,0,1-5-.22h0a6.34,6.34,0,0,1-3-1.19h0a4.23,4.23,0,0,1-1.45-2h0c-.58-1.5-.17-3.1,1.22-4.82h0c.36-.46.81-1,1.35-1.57h0c.53-.58,1.12-1.21,1.76-1.87h0c.66-.65,1.35-1.31,2.06-2h0c.72-.67,1.42-1.29,2.1-1.87h0l-1.28.18h0a11.28,11.28,0,0,0-3.72,1.17h0l-1.84-2.75h0l2.68.09h0a19.25,19.25,0,0,0,2.83-.15h0l16.88-2.27h0a22.4,22.4,0,0,0,2.42-.43h0a21.89,21.89,0,0,0,2.43-.66h0l-1.17,3.16h0a6.16,6.16,0,0,0-1.93-.41h0a11,11,0,0,0-2.3,0h0L477.12,74,481,77.17h0a31.71,31.71,0,0,0-5.33,3.15h0a55.72,55.72,0,0,0-5,3.88h0a2,2,0,0,0-.84,1.77h0a1.63,1.63,0,0,0,.36.88h0a2,2,0,0,0,1,.65h0a12.86,12.86,0,0,0,4.12.74h0a26.83,26.83,0,0,0,4.81-.36h0a30.54,30.54,0,0,0,5.16-1.43h0a45.4,45.4,0,0,0,5.37-2.25h0a32.11,32.11,0,0,1-2.24-3.47h0c-.67-1.2-1.29-2.39-1.87-3.56h0l6.86-2.09h0c.12,1.26.31,2.57.58,3.94h0a18.11,18.11,0,0,0,1.26,4h0A13.71,13.71,0,0,0,496.92,86h0a9.39,9.39,0,0,0,2.43,2.27h0a3.79,3.79,0,0,0,2.25.61h0a4.43,4.43,0,0,0,2.27-.74h0a5.47,5.47,0,0,0,2.32-3.19h0a4.2,4.2,0,0,0-.36-3.6h0a4.19,4.19,0,0,0-1.22-1.38h0a4.26,4.26,0,0,0-1.59-.7h0a4.45,4.45,0,0,0-3.13.48h0a3.23,3.23,0,0,0-1.15,1.17h0a2.58,2.58,0,0,0-.43,1.66h0a3,3,0,0,0,.39,1.28h0a2.34,2.34,0,0,0,.88.91h0a2.57,2.57,0,0,0,1.91.38h0a1.51,1.51,0,0,0,1.33-1.35h0a1.59,1.59,0,0,0-.61-1.6h0a2,2,0,0,0-.93-.41h0a4.37,4.37,0,0,0-1.26-.08h0a3.33,3.33,0,0,1,1.09-.64h0a2.58,2.58,0,0,1,1.3-.09h0a2.3,2.3,0,0,1,1.71,1.53h0a2.38,2.38,0,0,1,0,1.62h0a4,4,0,0,1-.9,1.44h0a3.25,3.25,0,0,1-1.8.82h0a2.91,2.91,0,0,1-1.93-.32h0a4.49,4.49,0,0,1-2.39-3.26h0a3.63,3.63,0,0,1,.48-2.28h0a4.89,4.89,0,0,1,1.66-1.75h0A5.73,5.73,0,0,1,501.2,78h0a4.22,4.22,0,0,1,2.06,0h0a5.09,5.09,0,0,1,2.1,1.06h0a6.86,6.86,0,0,1,1.44,1.69h0a5.27,5.27,0,0,1,.83,2.32h0A6,6,0,0,1,507.31,85.73Zm1.22,18.36-1.22,3.3h0a10.55,10.55,0,0,0-2-.4h0a11.17,11.17,0,0,0-2.37,0h0L464,111h0a11.08,11.08,0,0,0-2,.45h0a5.92,5.92,0,0,0-1.71.82h0l-1.66-2.5h0c.82,0,1.72,0,2.7-.07h0c1,0,2-.11,3.06-.23h0l16.7-1.79L479.87,99l-11.5,1.35h0a11.87,11.87,0,0,0-2,.43h0a9.54,9.54,0,0,0-1.84.72h0l-1.89-2.86h0l2.72.23h0a13.45,13.45,0,0,0,2.84,0h0l11.38-1.35L479,91l7.16-1.22-.74,7,10.84-1.35h0c.69-.08,1.47-.19,2.32-.34h0a13.67,13.67,0,0,0,2.52-.63h0l-1.17,3.24h0A8.09,8.09,0,0,0,498,97.2h0a8.14,8.14,0,0,0-2.28-.09h0l-10.41,1.28-1.42,9,19.53-2.07h0c.7-.09,1.56-.24,2.59-.47h0a14.83,14.83,0,0,0,2.56-.76Z"
          transform="translate(-91.47 -43.56)"/>
    <path class="e"
          d="M296.2,139l.25-2.65h0c0-1.61.06-2.83.08-3.67h0c0-.84,0-1.54,0-2.09h0l-.11-2.27h0a7.18,7.18,0,0,0,0-1h0l-.12-.85h0a1.2,1.2,0,0,1,.09-.68h0a.6.6,0,0,1,.2-.22h0a.73.73,0,0,1,.34-.09h0a1.84,1.84,0,0,1,.84.27h0q.5.27.9.45h0a4.29,4.29,0,0,1,.54.27h0a.56.56,0,0,1,.26.22h0a1.65,1.65,0,0,1,.09.21h0a.79.79,0,0,1,0,.2h0l-.36.47h0c0,.05-.09.27-.2.68h0a6.67,6.67,0,0,0-.14.72h0v.27h0c0,.1,0,.36-.07.78h0q-.07.64-.15,3.6h0c0,2-.05,3.31-.05,4h0a16.64,16.64,0,0,1-.11,1.8h0a10.22,10.22,0,0,1-.34,1.46h0a3.51,3.51,0,0,1-.81,1.31h0a4.71,4.71,0,0,1-1.23.92h0a6.71,6.71,0,0,1-1.06.47h0a2.84,2.84,0,0,1-.86.12h0a4.93,4.93,0,0,1-1.3-.14h0a7.92,7.92,0,0,1-1.17-.34h0a3.1,3.1,0,0,1-1-.62h0a3.55,3.55,0,0,1-.86-1h0a5.29,5.29,0,0,1-.51-1.15h0a7.51,7.51,0,0,1-.21-1.3h0a7.54,7.54,0,0,1-.06-1.28h0a3,3,0,0,1,.16-.66h0a1.82,1.82,0,0,1,.35-.6h0a1,1,0,0,1,.61-.34h0a.7.7,0,0,1,.68.25h0a1.71,1.71,0,0,1,.22.83h0l.07.74.09,1h0a2.79,2.79,0,0,0,.34,1.12h0a2.8,2.8,0,0,0,.92.82h0a1.9,1.9,0,0,0,1.31.31h0a2.13,2.13,0,0,0,.85-.29h0a4.38,4.38,0,0,0,1-.68h0a2,2,0,0,0,.61-1.35Zm15-4.75h0l-.2,2h0a15.1,15.1,0,0,0-.09,1.75h0l.09,1.36h0a11.19,11.19,0,0,0,.18,1.8h0l.53,2h0c0,.25-.06.42-.15.49h0c-.08.08-.33.09-.74,0h0l-1.33-.16h0c-.35,0-.56-.13-.65-.29h0l-.14-.48-.13-.4-.05-.5h0c-.08-.06-.22,0-.4,0h0l-.36.29h0a6.74,6.74,0,0,1-.79.61h0c-.36.24-.69.45-1,.62h0a2.51,2.51,0,0,1-1.24.19h0a3.79,3.79,0,0,1-1.53-.46h0a2.78,2.78,0,0,1-1.17-1h0a3.78,3.78,0,0,1-.43-1.42h0c-.06-.57-.1-1.29-.11-2.16h0a23.34,23.34,0,0,1,.13-2.54h0a10.6,10.6,0,0,1,.25-1.45h0a8.43,8.43,0,0,1,.54-1.43h0a5,5,0,0,1,.9-1.33h0a6,6,0,0,1,1.31-1h0a4.06,4.06,0,0,1,1.55-.56h0a5.65,5.65,0,0,1,1.28,0h0a2.75,2.75,0,0,1,1.21.48h0c.36.27.59.39.7.36h0l.43-.32h0a1.59,1.59,0,0,1,.47-.18h0l.39-.14h0a2,2,0,0,1,.69,0h0c.26,0,.42.09.48.17h0a.6.6,0,0,1,0,.46h0l-.36,1.23h0A10.21,10.21,0,0,0,311.23,134.25Zm-5.36,6.39h0a5.86,5.86,0,0,0,.68-.44h0a9.37,9.37,0,0,0,.85-.68h0a3.69,3.69,0,0,0,.66-.77h0a4,4,0,0,0,.45-1.21h0a8.46,8.46,0,0,0,.24-1.82h0q0-1.07.09-1.47h0a1.25,1.25,0,0,0,0-.62h0a1.56,1.56,0,0,0-.36-.37h0a2.17,2.17,0,0,0-.79-.42h0a2,2,0,0,0-1-.09h0a2.66,2.66,0,0,0-1,.42h0a3.24,3.24,0,0,0-.86.9h0a4.85,4.85,0,0,0-.61,1.2h0a6.9,6.9,0,0,0-.36,1.68h0a9.21,9.21,0,0,0,0,2.1h0a3.41,3.41,0,0,0,.2.92h0a1.53,1.53,0,0,0,.45.65h0a.86.86,0,0,0,.68.21h0A1.75,1.75,0,0,0,305.87,140.64Zm18.27-2.74h0c-.05,1-.07,1.69-.07,2.18h0c0,.49,0,1,.07,1.44h0c0,.47.05.78.05.93h0a1.41,1.41,0,0,1-.18.81h0a1.78,1.78,0,0,1-.7.35h0a2.44,2.44,0,0,1-.88.1h0a.73.73,0,0,1-.29-.07h0a2.33,2.33,0,0,1-.27-.3h0a1,1,0,0,1-.14-.72h0l.07-1.82.16-3.3h0c-.07-.75-.11-1.32-.11-1.71h0l-.05-1.22h0a4,4,0,0,0-.16-.85h0a2,2,0,0,0-.45-.64h0a1.73,1.73,0,0,0-.78-.45h0a1.16,1.16,0,0,0-.74,0h0a4.36,4.36,0,0,0-.77.44h0a2.27,2.27,0,0,0-.68.59h0a1.86,1.86,0,0,0-.31.77h0c-.06.32-.11.77-.16,1.35h0c-.05.59-.09,1-.11,1.25h0l-.13,1.15h0c0,.44,0,.81-.05,1.1h0c0,.28,0,.54,0,.77h0a2.12,2.12,0,0,0,0,.58h0l.11.66h0s0,.24.05.67h0c0,.42.05.67.05.75h0a1,1,0,0,1-.1.42h0a1.35,1.35,0,0,1-.51.39h0a2.1,2.1,0,0,1-1.2.18h0a.64.64,0,0,1-.31-.05h0a1.24,1.24,0,0,1-.27-.32h0a1.08,1.08,0,0,1-.14-.72h0l.07-1.82.2-2.9,0-1.6.11-1.86h0a2.59,2.59,0,0,0-.14-.88h0a1.82,1.82,0,0,0-.27-.39h0a.5.5,0,0,0-.2-.15h0l-.65.22h0a.57.57,0,0,1-.31-.16h0a1.15,1.15,0,0,1-.28-.53h0a1.59,1.59,0,0,1-.09-.75h0a.48.48,0,0,1,.09-.27h0q0-.1.36-.24h0a4.22,4.22,0,0,0,.86-.54h0a2.16,2.16,0,0,1,.95-.48h0a1.84,1.84,0,0,1,.53.09h0a1.36,1.36,0,0,1,.54.43h0l.55.7h0a6.28,6.28,0,0,1,.83-.75h0a3.36,3.36,0,0,1,.74-.42h0a3.41,3.41,0,0,1,1.15-.27h0a4,4,0,0,1,1.78.31h0a3.39,3.39,0,0,1,1.34.92h0a3.09,3.09,0,0,1,.66,1.09h0a5.77,5.77,0,0,1,.22,1.35h0c0,.51,0,1,0,1.57h0Zm6.57,1.49.09-4.26h0a1.47,1.47,0,0,0,0-.49h0l-.23-.59-.51-.92-.93-1.76-.49-.78h0l-.77-1.28h0l-.52-.72-.58-.86-.61-.76h0a1.31,1.31,0,0,1-.15-.37h0a.94.94,0,0,1,.06-.51h0a.88.88,0,0,1,.29-.38h0a1.19,1.19,0,0,1,.52-.18h0a4,4,0,0,1,.9,0h0a5.41,5.41,0,0,0,.75.07h0a.78.78,0,0,1,.36.06h0a.26.26,0,0,1,.17.18h0l.09.28h0l.07.51h0a6.57,6.57,0,0,0,.12.81h0a4.21,4.21,0,0,0,.31.77h0c.16.31.37.71.63,1.19h0c.25.47.41.77.49.9h0l.43.83h0a1.61,1.61,0,0,0,.34.48h0c.14.15.26.21.34.18h0q.07,0,.24-.18h0l.34-.36h0a4.9,4.9,0,0,0,.5-.77h0c.21-.37.36-.65.47-.83h0l.76-1.28.39-.73h0c.3-.58.48-.92.52-1h0a3.84,3.84,0,0,0,.2-.52h0a1.59,1.59,0,0,1,.33-.56h0a.71.71,0,0,1,.54-.16h0a.93.93,0,0,1,.41.12h0a1.3,1.3,0,0,1,.32.45h0a5.54,5.54,0,0,1,.33.78h0a6.61,6.61,0,0,1,.25.77h0a1.07,1.07,0,0,1,0,.52h0a1,1,0,0,1-.09.24h0a1.07,1.07,0,0,1-.2.23h0l-.7.47h0a4.4,4.4,0,0,0-.42.36h0a5.54,5.54,0,0,0-.57.68h0c-.18.24-.34.46-.47.67h0l-.67,1-1.28,1.95h0a4.53,4.53,0,0,0-.3.83h0a2.61,2.61,0,0,0-.06.7h0l0,2.64h0c0,.58,0,1,0,1.39h0c0,.35,0,.68.05,1h0q0,.48.09.75h0l.15.94h0c0,.2,0,.38,0,.52h0a1.15,1.15,0,0,1-.1.45h0a.65.65,0,0,1-.35.29h0a5.25,5.25,0,0,1-.82.25h0a2.08,2.08,0,0,1-.76.09h0a.53.53,0,0,1-.31-.27h0a1.64,1.64,0,0,1-.07-.74h0l.09-2Zm13.64-9h0a5.79,5.79,0,0,1,1.39.21h0a4.23,4.23,0,0,1,1.29.58h0a3.27,3.27,0,0,1,.94,1h0a5.65,5.65,0,0,1,.61,1.35h0a6.44,6.44,0,0,1,.34,1.6h0a12.47,12.47,0,0,1,0,1.73h0a16.25,16.25,0,0,1-.21,1.69h0q-.16.81-.33,1.35h0q-.18.54-.39,1h0a6,6,0,0,1-.51.88h0a7.77,7.77,0,0,1-.77.88h0a4.08,4.08,0,0,1-.79.63h0a4.41,4.41,0,0,1-.76.27h0c-.3.07-.54.12-.74.15h0a4.89,4.89,0,0,1-.64,0h0a5.75,5.75,0,0,1-1.12-.2h0a5,5,0,0,1-1-.4h0a5,5,0,0,1-.79-.54h0a6.49,6.49,0,0,1-.58-.54h0a2.6,2.6,0,0,1-.41-.84h0q-.19-.6-.33-1.14h0a9.16,9.16,0,0,1-.21-1.26h0a13.39,13.39,0,0,1-.09-1.62h0c0-.25,0-.5,0-.75h0c0-.24,0-.51.07-.81h0a3.31,3.31,0,0,1,.16-.83h0l.13-.36.18-.72h0a4.5,4.5,0,0,1,.32-.52h0l.52-.88h0a4,4,0,0,1,.63-.78h0a6.07,6.07,0,0,1,.85-.59h0a4.25,4.25,0,0,1,1-.4h0A6.08,6.08,0,0,1,344.35,130.38Zm.09,2.59h0a2.83,2.83,0,0,0-.9.14h0a2,2,0,0,0-.68.47h0a2.9,2.9,0,0,0-.52.72h0a3.79,3.79,0,0,0-.33.7h0a4.56,4.56,0,0,0-.12.58h0l-.11.65h0a7.45,7.45,0,0,0-.15.9h0a6.29,6.29,0,0,0,0,.72h0c0,.16.05.45.11.86h0a5.28,5.28,0,0,0,.23,1h0a2.55,2.55,0,0,0,.53.81h0a2.17,2.17,0,0,0,.7.57h0a1.54,1.54,0,0,0,.81.13h0a1.83,1.83,0,0,0,.9-.25h0a2.11,2.11,0,0,0,.65-.61h0a3.23,3.23,0,0,0,.37-.71h0a5.73,5.73,0,0,0,.24-.86h0c.07-.34.13-.68.18-1h0c0-.36.05-.75.05-1.16h0c0-.33,0-.71-.09-1.13h0a7.49,7.49,0,0,0-.2-1h0a2.86,2.86,0,0,0-.32-.74h0a1.68,1.68,0,0,0-.54-.52h0A1.88,1.88,0,0,0,344.44,133Zm32.08-3.28h0l-.47.4-.22.27-.18.18-.18.29h0a.45.45,0,0,1-.27,0h0a.17.17,0,0,1-.12,0h0a.19.19,0,0,1-.09-.05h0l-.15-.23h0a2.89,2.89,0,0,0-.3-.45h0a6.27,6.27,0,0,1-.51-.63h0c-.18-.24-.33-.43-.45-.56h0a3.42,3.42,0,0,0-.68-.51h0a9.21,9.21,0,0,0-.85-.45h0a3.17,3.17,0,0,0-.77-.23h0a6.14,6.14,0,0,0-1,0h0a4.73,4.73,0,0,0-1,.22h0a1.79,1.79,0,0,0-.83.68h0a3,3,0,0,0-.39,1.34h0a2.21,2.21,0,0,0,.18,1.27h0a1.93,1.93,0,0,0,.63.76h0a4.74,4.74,0,0,0,1.06.61h0c.39.18.92.4,1.58.65h0a12,12,0,0,1,1.37.58h0c.25.13.6.33,1,.61h0a6.51,6.51,0,0,1,1,.7h0a4.46,4.46,0,0,1,.61.9h0a4.51,4.51,0,0,1,.45,1.17h0a3.51,3.51,0,0,1,.14.94h0q0,.38,0,.81h0a12.75,12.75,0,0,1-.36,1.94h0a3.08,3.08,0,0,1-.69,1.37h0a3.36,3.36,0,0,1-1,.7h0a5.69,5.69,0,0,1-.79.34h0c-.15,0-.5.06-1,.11h0l-1.06.09h0a4.79,4.79,0,0,1-1,0h0a6.11,6.11,0,0,1-.85-.18h0a5.55,5.55,0,0,1-1-.41h0a5.76,5.76,0,0,1-.87-.56h0a5.73,5.73,0,0,1-.64-.59h0l-.51-.51h0l-.54-.43h0a2.33,2.33,0,0,1-.5-.47h0a.53.53,0,0,1-.13-.3h0a1.77,1.77,0,0,1,.36-.65h0l.38-.72h0a1.67,1.67,0,0,1,.4-.5h0a.54.54,0,0,1,.34-.2h0a.45.45,0,0,1,.32.2h0l.2.55h0a1.93,1.93,0,0,0,.4.49h0l.48.54h0a3.78,3.78,0,0,0,.76.59h0a4.42,4.42,0,0,0,.95.47h0a4,4,0,0,0,1.24.2h0a3.66,3.66,0,0,0,1.25-.09h0a2,2,0,0,0,.93-.43h0a2.26,2.26,0,0,0,.52-1.08h0a2.5,2.5,0,0,0,0-1.35h0a6.25,6.25,0,0,0-.25-.6h0a2.74,2.74,0,0,0-.58-.7h0a9.68,9.68,0,0,0-1.47-.92h0l-.8-.45h0c-.3-.14-.58-.27-.84-.37h0l-1.68-.63h0a3.88,3.88,0,0,1-1.26-.92h0a4.82,4.82,0,0,1-.7-1h0a7.63,7.63,0,0,1-.34-1h0a6.2,6.2,0,0,1-.09-1.46h0a5,5,0,0,1,.14-1.06h0a5.86,5.86,0,0,1,.49-1.1h0a9.6,9.6,0,0,1,.88-1.2h0a3,3,0,0,1,1.17-.87h0a4.55,4.55,0,0,1,1.39-.32h0a6.47,6.47,0,0,1,1.58,0h0a13.62,13.62,0,0,1,1.84.39h0a4.87,4.87,0,0,1,1.4.56h0a3.76,3.76,0,0,1,.65.61h0l.45.65.76.9h0C376.61,129.06,376.66,129.44,376.52,129.69Zm4.86,9.2h0c0-.65.06-1.13.07-1.46h0l.07-2.37h0c0-.88.06-1.37.06-1.48h0l-.06-.9h0l-.61.07h0a1.53,1.53,0,0,0-.49.09h0l-.81.22h0l-.19.07h0l-.09,0h0a.18.18,0,0,1-.18-.06h0A.44.44,0,0,1,379,133h0l-.52-.83h0a.62.62,0,0,1-.16-.36h0v-.2h0a.28.28,0,0,1,0-.1h0a.1.1,0,0,1,.06-.09h0l.16-.2,1.35-.13,1.58-.18h0c0-.38,0-.73-.05-1h0a4.2,4.2,0,0,0,0-.72h0l-.16-.88h0a.88.88,0,0,1,.13-.53h0a1.07,1.07,0,0,1,.27-.14h0a1.24,1.24,0,0,1,.39-.09h0a4.09,4.09,0,0,1,1,.27h0a9.52,9.52,0,0,1,1,.36h0a.64.64,0,0,1,.29.22h0a.29.29,0,0,1,.09.16h0a.35.35,0,0,1,0,.14h0l-.31.42h0a.33.33,0,0,0-.05.14h0l-.2,1.53,1.13-.25.87-.24h0a2.81,2.81,0,0,1,.72-.07h0l.12,0h0l.11,0h0a.4.4,0,0,1,.14.09h0a4.12,4.12,0,0,1,.36.69h0c.2.4.3.64.33.72h0a1.05,1.05,0,0,1,.05.19h0a1,1,0,0,1,0,.15h0a1.14,1.14,0,0,1-.05.23h0a1.46,1.46,0,0,0-.09.16h0s0,.06-.08.06h0l-.09,0h0l-.05,0h0a2.28,2.28,0,0,1-.56-.09h0a4.78,4.78,0,0,0-.86-.12h0a8.2,8.2,0,0,0-1.24,0h0l-.89.16h0c-.08,1-.15,2-.19,2.74h0c-.05.79-.09,1.52-.11,2.18h0c0,.67-.07,1.27-.11,1.81h0a3,3,0,0,0,.14,1.3h0a1.9,1.9,0,0,0,.47.67h0a1,1,0,0,0,.72.25h0a1.09,1.09,0,0,0,.88-.58h0a2.66,2.66,0,0,0,.42-1.22h0a2.47,2.47,0,0,1,.2-1h0a.57.57,0,0,1,.48-.34h0a1.49,1.49,0,0,1,.52.19h0l.53.24h0a1.08,1.08,0,0,1,.36.38h0a1.2,1.2,0,0,1-.06.77h0a8.53,8.53,0,0,1-.45,1.08h0a9.49,9.49,0,0,1-.7,1.22h0a3.15,3.15,0,0,1-.88.9h0a2.66,2.66,0,0,1-1.39.38h0a3.12,3.12,0,0,1-1.76-.3h0a2.81,2.81,0,0,1-1-1h0a2,2,0,0,1-.32-1.11h0Zm15.84-3.06h0c0-.84,0-1.48-.06-1.93h0c0-.44,0-.88-.07-1.31h0c0-.43,0-.77,0-1h0a2.86,2.86,0,0,0-.09-.7h0a.79.79,0,0,1,0-.5h0q0-.18.36-.33h0a1.4,1.4,0,0,1,.59-.11h0l.51.11.79.09h0a2.82,2.82,0,0,1,.47.25h0a1.37,1.37,0,0,1,.36.31h0a.41.41,0,0,1,.05.18h0a.2.2,0,0,1,0,.16h0l-.28.4h0a1.08,1.08,0,0,0-.18.36h0a1.66,1.66,0,0,0-.15.59h0c0,.18,0,.36-.05.52h0c0,.17,0,.48-.06.94h0c0,.47,0,.83-.05,1.1h0c0,.26,0,.72,0,1.38h0c0,.66,0,1.25,0,1.77h0c0,.17,0,.73.05,1.69h0l.06,1.24h0q0,.56,0,.9h0a3.54,3.54,0,0,0,.11.58h0a1.37,1.37,0,0,1,.05.34h0a.46.46,0,0,1-.05.23h0a1.32,1.32,0,0,1-.56.36h0a3.31,3.31,0,0,1-.84.26h0a.81.81,0,0,1-.63-.15h0a.62.62,0,0,1-.29-.36h0l.07-.65.05-.57h0a5.14,5.14,0,0,1-.9,1h0a3.26,3.26,0,0,1-.77.39h0a3.93,3.93,0,0,1-1.21.15h0a4.92,4.92,0,0,1-2.08-.38h0a3.37,3.37,0,0,1-1.39-1h0a4.43,4.43,0,0,1-.65-1.15h0a5.07,5.07,0,0,1-.2-1.42h0s0-.65,0-1.87h0l0-1.41,0-1,0-1.24-.07-1.12-.05-1.29-.07-.92h0a.76.76,0,0,1,.09-.43h0a.4.4,0,0,1,.21-.13h0a.74.74,0,0,1,.34-.07h0a2.56,2.56,0,0,1,.9.14h0l.51.2.57.22h0a1.28,1.28,0,0,1,.26.2h0a.43.43,0,0,1,.12.16h0a.3.3,0,0,1,0,.12h0l-.26.35h0a.56.56,0,0,0-.09.14h0c0,.06-.06.26-.12.61h0l-.09.4h0c0,.14-.07.59-.15,1.35h0l-.07.88,0,1.1h0a5.2,5.2,0,0,0,0,.79h0v.86h0a3.3,3.3,0,0,0,0,.65h0a8.09,8.09,0,0,0,.07,1h0a4.29,4.29,0,0,0,.2,1h0a1.72,1.72,0,0,0,.46.74h0a2.12,2.12,0,0,0,.78.43h0a2.37,2.37,0,0,0,.77.15h0a1.75,1.75,0,0,0,.83-.13h0a3.11,3.11,0,0,0,.85-.63h0a3.14,3.14,0,0,0,.73-1.13h0a6,6,0,0,0,.31-1.12h0c0-.31.08-.74.14-1.29h0c0-.57.08-.91.08-1h0Zm11.95-4.68h0a3,3,0,0,1,0-.43h0l0-.42-.09-1.51L409,127.3h0a8.38,8.38,0,0,1-.11-1.08h0a.69.69,0,0,1,.11-.47h0a.71.71,0,0,1,.27-.18h0a1.68,1.68,0,0,1,.43-.07h0a2.47,2.47,0,0,1,.54,0h0l.63.25h0l1,.38h0a1,1,0,0,1,.36.24h0a.32.32,0,0,1,.07.18h0a.15.15,0,0,1,0,.14h0l-.31.38h0l-.18.41h0a3.16,3.16,0,0,0-.16.74h0v.23l-.05.42v.29h0v.27h0l-.07,2.39h0c0,.26,0,1.11,0,2.54h0c0,1.43,0,2.52,0,3.27h0c0,.76,0,1.2,0,1.34h0l.07,1.53.15,1.24h0c.21.63.27,1,.16,1.19h0a2,2,0,0,1-.61.45h0l-.65.34h0a2.59,2.59,0,0,1-.79,0h0c-.4,0-.63-.12-.69-.34h0a2.41,2.41,0,0,1,0-.9h0v-.32l.06-.29h0l-.43.57h0a2,2,0,0,1-.8.65h0a6.87,6.87,0,0,1-1.17.36h0a4.09,4.09,0,0,1-1,.15h0q-.18,0-.72-.18h0a4.59,4.59,0,0,1-.71-.26h0a3.24,3.24,0,0,1-.54-.3h0l-.45-.27h0l-.27-.22h0a3.59,3.59,0,0,1-.39-.39h0a2.8,2.8,0,0,1-.42-1h0c-.13-.48-.23-.88-.3-1.22h0a9.09,9.09,0,0,1-.15-1.26h0a13,13,0,0,1,0-1.53h0a6,6,0,0,1,.08-.77h0c0-.35.07-.65.1-.9h0a4.1,4.1,0,0,1,.24-.85h0l.16-.38.27-.74h0l.38-.54h0l.65-.9.86-.79h0a4.36,4.36,0,0,1,.65-.54h0l.48-.18h0a4.19,4.19,0,0,1,.51-.14h0a2.05,2.05,0,0,1,.57-.06h0l.53.08h0a3.81,3.81,0,0,1,.61.09h0a3.21,3.21,0,0,1,.84.37h0Zm0,4.84-.06-1.49h0l-.27-.31h0l-.29-.41h0a2.32,2.32,0,0,0-.54-.58h0a1.65,1.65,0,0,0-.7-.29h0a1.9,1.9,0,0,0-1,.08h0a1.68,1.68,0,0,0-.65.36h0a6.15,6.15,0,0,0-.54.66h0l-.25.33h0a2.58,2.58,0,0,0-.36.59h0a4.78,4.78,0,0,0-.22.67h0a4.21,4.21,0,0,0-.16.64h0a5.84,5.84,0,0,0-.05,1h0a10.52,10.52,0,0,0,0,1.17h0a4.08,4.08,0,0,0,.2,1.06h0a2.43,2.43,0,0,0,.43.76h0a4.91,4.91,0,0,0,.51.47h0a3.27,3.27,0,0,0,.56.27h0a1.48,1.48,0,0,0,1-.22h0a3.7,3.7,0,0,0,.61-.38h0A5.26,5.26,0,0,0,408,140h0a8.65,8.65,0,0,0,.56-.7h0a2.42,2.42,0,0,0,.41-.68h0A2.48,2.48,0,0,0,409,138h0c0-.21.06-.34.06-.37h0v-.62Zm7.77-11.1h0a4,4,0,0,1,.56.07h0a1.32,1.32,0,0,1,.74.38h0a1.07,1.07,0,0,1,.32.81h0a1.73,1.73,0,0,1-.29.95h0a1.08,1.08,0,0,1-.28.31h0l-.51.19h0a2.46,2.46,0,0,1-.41.15h0a1,1,0,0,1-.47-.15h0a2.29,2.29,0,0,1-.58-.43h0a.82.82,0,0,1-.28-.57h0a1.24,1.24,0,0,1,0-.4h0a1.19,1.19,0,0,1,.39-1h0A1.48,1.48,0,0,1,417,124.89Zm1.08,10.42-.05,2.48h0c0,.43,0,.75,0,.94h0l0,.79v.85h0c0,.3,0,.53-.05.7h0a1.58,1.58,0,0,0,0,.32h0a.57.57,0,0,0,0,.22h0l.16.45h0c0,.08,0,.24.07.48h0a3.59,3.59,0,0,1,.05.47h0a.5.5,0,0,1-.1.29h0a2.5,2.5,0,0,1-.78.31h0a5.29,5.29,0,0,1-.86.18h0a.73.73,0,0,1-.34,0h0a.56.56,0,0,1-.29-.16h0a.38.38,0,0,1-.13-.27h0l.29-6.68-.05-1.17-.06-2,0-.72,0-1.08h0c-.06-.49-.09-.77-.09-.83h0a.52.52,0,0,1,.09-.36h0a.64.64,0,0,1,.33-.14h0a2.07,2.07,0,0,1,.41-.07h0a2.22,2.22,0,0,1,.58.09h0l.55.21.63.22h0a.94.94,0,0,1,.33.21h0a.25.25,0,0,1,.07.15h0a.12.12,0,0,1,0,.11h0l-.21.28h0l-.13.31h0a1.63,1.63,0,0,0-.09.52h0v.18l0,.31v.21h0v.08h0Zm8.95-4.93h0a5.78,5.78,0,0,1,1.38.21h0a4.52,4.52,0,0,1,1.3.58h0a3.46,3.46,0,0,1,.92,1h0a6.06,6.06,0,0,1,.63,1.35h0a7.44,7.44,0,0,1,.32,1.6h0a11,11,0,0,1,0,1.73h0a16.07,16.07,0,0,1-.23,1.69h0a10.28,10.28,0,0,1-.33,1.35h0a9.41,9.41,0,0,1-.39,1h0a4.62,4.62,0,0,1-.51.88h0a6.17,6.17,0,0,1-.77.88h0a4.41,4.41,0,0,1-.79.63h0a4.41,4.41,0,0,1-.76.27h0l-.72.15h0a4.94,4.94,0,0,1-.65,0h0a5.4,5.4,0,0,1-1.11-.2h0a4.72,4.72,0,0,1-1-.4h0a5,5,0,0,1-.79-.54h0c-.23-.2-.42-.38-.58-.54h0a2.6,2.6,0,0,1-.41-.84h0c-.14-.4-.24-.78-.33-1.14h0q-.12-.54-.21-1.26h0a13.39,13.39,0,0,1-.09-1.62h0c0-.25,0-.5,0-.75h0c0-.24,0-.51.08-.81h0a2.91,2.91,0,0,1,.16-.83h0l.12-.36.18-.72h0c0-.06.14-.23.33-.52h0l.52-.88h0a3.74,3.74,0,0,1,.65-.78h0a6.48,6.48,0,0,1,.83-.59h0a4.1,4.1,0,0,1,1-.4h0A5.79,5.79,0,0,1,427,130.38Zm.09,2.59h0a2.66,2.66,0,0,0-.9.14h0a2.06,2.06,0,0,0-.69.47h0a3.56,3.56,0,0,0-.54.72h0a3.39,3.39,0,0,0-.3.7h0a4.45,4.45,0,0,0-.15.58h0l-.1.65h0a6.58,6.58,0,0,0-.13.9h0a3,3,0,0,0,0,.72h0c0,.16,0,.45.09.86h0a5.28,5.28,0,0,0,.23,1h0a2.68,2.68,0,0,0,.52.81h0a2.56,2.56,0,0,0,.71.57h0a1.58,1.58,0,0,0,.81.13h0a1.93,1.93,0,0,0,.91-.25h0a1.76,1.76,0,0,0,.63-.61h0a2.9,2.9,0,0,0,.38-.71h0a7.24,7.24,0,0,0,.24-.86h0a8.68,8.68,0,0,0,.18-1h0a10.48,10.48,0,0,0,.07-1.16h0a10.44,10.44,0,0,0-.11-1.13h0a7.86,7.86,0,0,0-.18-1h0a2.86,2.86,0,0,0-.32-.74h0a1.74,1.74,0,0,0-.56-.52h0A1.79,1.79,0,0,0,427.1,133Z"
          transform="translate(-91.47 -43.56)"/>
</svg>